<svg width="21" height="19" viewBox="0 0 21 19" fill="none" xmlns="http://www.w3.org/2000/svg">
<path d="M16.0935 17.3789C14.225 17.3789 12.7365 17.046 11.8672 16.4865V17.3789C11.8672 18.2067 13.6841 18.8312 16.0935 18.8312C18.5029 18.8312 20.3198 18.2067 20.3198 17.3789V16.4865C19.4504 17.046 17.9619 17.3789 16.0935 17.3789Z" fill="white"/>
<path d="M16.0935 15.0343C14.225 15.0343 12.7365 14.7013 11.8672 14.1418V15.0343C11.8672 15.862 13.6841 16.4865 16.0935 16.4865C18.5029 16.4865 20.3198 15.862 20.3198 15.0343V14.1418C19.4504 14.7013 17.9619 15.0343 16.0935 15.0343Z" fill="white"/>
<path d="M16.0935 12.6896C14.225 12.6896 12.7365 12.3567 11.8672 11.7972V12.6896C11.8672 13.5174 13.6841 14.1418 16.0935 14.1418C18.5029 14.1418 20.3198 13.5174 20.3198 12.6896V11.7972C19.4504 12.3567 17.9619 12.6896 16.0935 12.6896Z" fill="white"/>
<path d="M16.0935 8.67096C13.6841 8.67096 11.8672 9.3431 11.8672 10.2341C11.8672 11.125 13.6841 11.7972 16.0935 11.7972C18.5029 11.7972 20.3198 11.125 20.3198 10.2341C20.3198 9.3431 18.5029 8.67096 16.0935 8.67096Z" fill="white"/>
<path fill-rule="evenodd" clip-rule="evenodd" d="M15.9727 7.57678C12.7946 7.57678 10.6597 8.58176 10.6597 10.0778V12.5787H0.476323C0.231923 12.5787 0.0335693 12.392 0.0335693 12.1619V0.490682C0.0335693 0.260592 0.231923 0.0738525 0.476323 0.0738525H18.1865C18.4309 0.0738525 18.6292 0.260592 18.6292 0.490682V7.08576V7.85981C17.8695 7.67682 16.9733 7.57678 15.9727 7.57678ZM9.33141 4.65898C8.35336 4.65898 7.56039 5.40552 7.56039 6.32629C7.56039 7.24707 8.35336 7.99361 9.33141 7.99361C10.3094 7.99361 11.1024 7.24707 11.1024 6.32629C11.1024 5.40552 10.3094 4.65898 9.33141 4.65898Z" fill="white"/>
</svg>
