<svg width="14" height="14" viewBox="0 0 14 14" fill="none" xmlns="http://www.w3.org/2000/svg">
<path opacity="0.6" d="M4.00005 5.6H2.80005V0.56C2.80005 0.25032 3.06825 0 3.40005 0H10.6C10.9318 0 11.2 0.25032 11.2 0.56V3.92H10V1.12H4.00005V5.6Z" fill="#3A416F"/>
<path fill-rule="evenodd" clip-rule="evenodd" d="M8.16667 4.89999H13.4167C13.7393 4.89999 14 5.15422 14 5.46874V13.4312C14 13.7458 13.7393 14 13.4167 14H0.583333C0.26075 14 0 13.7458 0 13.4312V7.74374C0 7.42923 0.26075 7.17499 0.583333 7.17499H5.83333C6.15592 7.17499 6.41667 7.42923 6.41667 7.74374V12.8625H7.58333V5.46874C7.58333 5.15422 7.84408 4.89999 8.16667 4.89999ZM2.33333 12.2937H4.08333V11.1562H2.33333V12.2937ZM4.08333 10.0188H2.33333V8.88126H4.08333V10.0188ZM9.91667 12.2937H11.6667V11.1562H9.91667V12.2937ZM11.6667 10.0188H9.91667V8.88126H11.6667V10.0188ZM9.91667 7.74375H11.6667V6.60625H9.91667V7.74375Z" fill="#3A416F"/>
</svg>
