<svg width="21" height="20" viewBox="0 0 21 20" fill="none" xmlns="http://www.w3.org/2000/svg">
<path fill-rule="evenodd" clip-rule="evenodd" d="M0.341797 10.0621C0.341797 4.88244 4.88302 0.683472 10.4849 0.683472C16.084 0.689609 20.6214 4.88499 20.628 10.0621C20.628 15.2418 16.0868 19.4408 10.4849 19.4408C4.88302 19.4408 0.341797 15.2418 0.341797 10.0621ZM4.98354 16.4895C6.54651 17.6414 8.48614 18.2687 10.4849 18.2685C13.7326 18.2755 16.7242 16.6391 18.2813 14.0039C19.8385 11.3686 19.7117 8.15689 17.9509 5.63365L17.0633 6.15358C16.9601 6.21506 16.8394 6.24688 16.7166 6.24502L15.0379 6.2292L13.782 6.69168C13.5851 6.76422 13.3619 6.7409 13.1874 6.62955L11.9734 5.85522C11.8488 5.77612 11.7589 5.65846 11.7198 5.52345L11.3528 4.24502L10.3765 3.29602L9.2354 2.54573C9.07381 2.43948 8.97528 2.26943 8.96915 2.08617L8.96598 1.98359C7.80674 2.16956 6.69947 2.56817 5.70941 3.15593L6.68124 4.20048L7.87496 5.58676C7.97311 5.69972 8.02216 5.84248 8.01253 5.98711L7.89588 7.86695C7.87889 8.1362 7.66539 8.35998 7.37858 8.40915L5.23268 8.77609L3.97557 10.1501L4.57528 11.3007L5.24599 12.4097L6.912 13.6043C7.17447 13.792 7.23611 14.135 7.05337 14.391L5.89325 16.0182C5.82562 16.1126 5.72984 16.1869 5.61749 16.2321L4.98354 16.4895Z" fill="white"/>
</svg>
